# xmcd CD database file
#
# Track frame offsets:
#	150
#	7461
#	22557
#	41118
#	58743
#	71218
#	87666
#	105147
#	138279
#	152331
#	170374
#
# Disc length: 2482 seconds
#
# Revision: 0
# Processed by: cddbd v1.5.1PL0 Copyright (c) Steve Scherf et al.
# Submitted via: CDex 1.51
#
DISCID=8809b00b
DTITLE=Colorful Cube - Prism Light Fragments
DYEAR=2003
DGENRE=Game
TTITLE0=Snow. and snow
TTITLE1=明治１７年の中国女
TTITLE2=アリスマエステラ
TTITLE3=Shrine Arch
TTITLE4=Prism River Side
TTITLE5=じょんがら怪奇談　掛け合い曲弾き
TTITLE6=幽霊楽団　-children of phantom-
TTITLE7=涅槃桜
TTITLE8=恋色マジック
TTITLE9=B.O.L.
TTITLE10=上海紅茶館
EXTD=YEAR: 2003
EXTT0=
EXTT1=
EXTT2=
EXTT3=
EXTT4=
EXTT5=
EXTT6=
EXTT7=
EXTT8=
EXTT9=
EXTT10=
PLAYORDER=
